{"title":"Helpless.2012.720p.HDRip.H264-Mbaro","uid":7385367,"size":3493617162,"categoryP":"video","categoryS":"hd___movies","magnet":"?xt=urn:btih:ef4b8e3f33e55044cc0af61ab3ff57d2f3d14fc1&amp;dn=Helpless.2012.720p.HDRip.H264-Mbaro&amp;tr=udp%3A%2F%2Ftracker.openbittorrent.com%3A80&amp;tr=udp%3A%2F%2Fopen.demonii.com%3A1337&amp;tr=udp%3A%2F%2Ftracker.coppersurfer.tk%3A6969&amp;tr=udp%3A%2F%2Fexodus.desync.com%3A6969","seeders":2,"leechers":1,"uploader":"xxbel","files":-1,"time":1340622247,"description":"General\n    Complete name : Helpless.2012.720p.HDRip.H264-Mbaro.mp4\n    Format : MPEG-4\n    Codec ID : M4V\n    File size : 2.57 GiB\n    Duration : 1h 55mn\n    Overall bit rate mode : Variable\n    Overall bit rate : 3 187 Kbps\n    Encoded date : UTC 2012-05-10 16:56:03\n    Tagged date : UTC 2012-05-10 16:56:03\n  Video #1\n    ID : 1\n    Format : AVC\n    Format/Info : Advanced Video Codec\n    Format profile : &lt;a class=&quot;__cf_email__&quot; href=&quot;/cdn-cgi/l/email-protection&quot; data-cfemail=&quot;d499b5bdba9498e7fae5&quot;&gt;[email&amp;#160;protected]&lt;/a&gt;&lt;script cf-hash='f9e31' type=&quot;text/javascript&quot;&gt;\n/* &lt;![CDATA[ */!function(){try{var t=&quot;currentScript&quot;in document?document.currentScript:function(){for(var t=document.getElementsByTagName(&quot;script&quot;),e=t.length;e--;)if(t[e].getAttribute(&quot;cf-hash&quot;))return t[e]}();if(t&amp;&amp;t.previousSibling){var e,r,n,i,c=t.previousSibling,a=c.getAttribute(&quot;data-cfemail&quot;);if(a){for(e=&quot;&quot;,r=parseInt(a.substr(0,2),16),n=2;a.length-n;n+=2)i=parseInt(a.substr(n,2),16)^r,e+=String.fromCharCode(i);e=document.createTextNode(e),c.parentNode.replaceChild(e,c)}}}catch(u){}}();/* ]]&gt; */&lt;/script&gt;\n    Format settings, CABAC : No\n    Format settings, ReFrames : 2 frames\n    Format settings, GOP : M=1, N=33\n    Codec ID : avc1\n    Codec ID/Info : Advanced Video Coding\n    Duration : 1h 55mn\n    Bit rate mode : Variable\n    Bit rate : 2 995 Kbps\n    Width : 1 280 pixels\n    Height : 692 pixels\n    Display aspect ratio : 1.850\n    Frame rate mode : Constant\n    Frame rate : 24.000 fps\n    Standard : NTSC\n    Color space : YUV\n    Chroma subsampling : 4:2:0\n    Bit depth : 8 bits\n    Scan type : Progressive\n    Bits/(Pixel*Frame) : 0.141\n    Stream size : 2.41 GiB (94%)\n    Language : English\n    Encoded date : UTC 2012-05-10 16:56:03\n    Tagged date : UTC 2012-05-10 16:56:03\n  Audio #2\n    ID : 2\n    Format : AAC\n    Format/Info : Advanced Audio Codec\n    Format profile : LC\n    Codec ID : 40\n    Duration : 1h 55mn\n    Source duration : 1h 55mn\n    Bit rate mode : Variable\n    Bit rate : 192 Kbps\n    Maximum bit rate : 292 Kbps\n    Channel(s) : 2 channels\n    Channel positions : Front: L R\n    Sampling rate : 48.0 KHz\n    Compression mode : Lossy\n    Stream size : 156 MiB (6%)\n    Source stream size : 156 MiB\n    Language : English\n    Encoded date : UTC 2012-05-10 16:56:03\n    Tagged date : UTC 2012-05-10 16:56:03","torrent":{"xt":"urn:btih:ef4b8e3f33e55044cc0af61ab3ff57d2f3d14fc1","amp;dn":"Helpless.2012.720p.HDRip.H264-Mbaro","amp;tr":["udp%3A%2F%2Ftracker.openbittorrent.com%3A80","udp%3A%2F%2Fopen.demonii.com%3A1337","udp%3A%2F%2Ftracker.coppersurfer.tk%3A6969","udp%3A%2F%2Fexodus.desync.com%3A6969"],"infoHash":"ef4b8e3f33e55044cc0af61ab3ff57d2f3d14fc1","infoHashBuffer":{"type":"Buffer","data":[239,75,142,63,51,229,80,68,204,10,246,26,179,255,87,210,243,209,79,193]},"announce":[],"urlList":[]}}